<?xml version="1.0" encoding="utf-8"?>
<!-- Generator: Adobe Illustrator 22.0.1, SVG Export Plug-In . SVG Version: 6.00 Build 0)  -->
<svg version="1.1" id="blogtracer-logo" xmlns="http://www.w3.org/2000/svg" xmlns:xlink="http://www.w3.org/1999/xlink" x="0px"
	 y="0px" viewBox="0 0 200 200" style="enable-background:new 0 0 200 200;" xml:space="preserve">
<style type="text/css">
	.st0{fill:#FFFFFF;stroke:#FFFFFF;stroke-width:7;stroke-miterlimit:10;}
</style>
<g id="blogtracer-logo_1_">
	<path class="st0" d="M166,87.8L166,87.8c0,3.6-2.9,6.5-6.5,6.5h-127c-3.6,0-6.5-2.9-6.5-6.5l0,0c0-3.6,2.9-6.5,6.5-6.5H151
		c0.2,0.1,0.5,0.3,0.8,0.4c0-0.1-0.1-0.3-0.1-0.4h7.9C163.1,81.3,166,84.2,166,87.8z"/>
	<path class="st0" d="M59.5,132.3c-1,0-2.1,0.1-3.1,0.2v-0.2C56.4,132.3,58.5,132.3,59.5,132.3z"/>
	<path class="st0" d="M83,144.7c-3.5-5-8.5-8.9-14.4-10.9c-0.4-0.1-0.8-0.3-1.2-0.4c-2.5-0.7-5.2-1.1-7.9-1.1c-1,0-2.1,0.1-3.1,0.2
		V60.8c-0.1-1.6-0.8-3.1-1.9-4.1c-1.4-1.4-3.5-2.2-5.7-1.8c-3,0.5-5.4,3.6-5.4,6.6v70.9H31.5c-1.8,0-3.4,0.7-4.6,1.8
		c-1.2,1.1-1.9,2.7-1.9,4.4c0,3.4,2.9,6.2,5.5,6.2h13.1v39.8c3.7,2.5,8.1,4.2,12.9,4.7l0,0c1,0.1,2,0.2,3.1,0.2
		c15.7,0,28.5-12.8,28.5-28.5C88,154.8,86.2,149.3,83,144.7z M59.2,175.2c-1,0-1.9-0.1-2.8-0.3v-30c0.1,0,0.1,0,0.2,0
		c0.7-0.1,1.5-0.2,2.2-0.2c0.1,0,0.2,0,0.4,0c0.1,0,0.3,0,0.4,0c8.3,0.2,14.9,7,14.9,15.3C74.5,168.4,67.6,175.2,59.2,175.2z"/>
	<path class="st0" d="M175,144.8c0,15.7-12.8,28.5-28.5,28.5c-1,0-2.1-0.1-3.1-0.2l0,0c-4.7-0.5-9.1-2.2-12.9-4.7V45.5
		c0-3.6,3-6.8,6.6-6.7c1.7,0,3.3,0.8,4.4,1.9c1.1,1.1,1.8,2.5,1.9,4.1v83.7c-0.1,0.1-0.1,0.1-0.2,0.2c-0.1,0.1-0.2,0.2-0.3,0.3
		c0.1,0,0.3-0.1,0.4-0.1v30l0,0c0.9,0.2,1.8,0.3,2.8,0.3c8.4,0,15.3-6.8,15.3-15.3l0,0c0-1.4,1.1-2.5,2.5-2.5h7.5
		C173.5,141.4,175,143,175,144.8z"/>
	<path class="st0" d="M59.6,144.7h-0.7c0.1,0,0.2,0,0.4,0C59.3,144.7,59.5,144.7,59.6,144.7z"/>
</g>
</svg>
